<svg width="629" height="163" viewBox="0 0 629 163" fill="none" xmlns="http://www.w3.org/2000/svg">
<path d="M91.8 20.6V48H34.6V77.6H77.4V104.2H34.6V161H0.400001V20.6H91.8ZM126.975 37.8C120.975 37.8 116.042 36.0667 112.175 32.6C108.442 29 106.575 24.6 106.575 19.4C106.575 14.0667 108.442 9.66666 112.175 6.19999C116.042 2.59999 120.975 0.799988 126.975 0.799988C132.842 0.799988 137.642 2.59999 141.375 6.19999C145.242 9.66666 147.175 14.0667 147.175 19.4C147.175 24.6 145.242 29 141.375 32.6C137.642 36.0667 132.842 37.8 126.975 37.8ZM143.975 49.4V161H109.775V49.4H143.975ZM230.959 132V161H213.559C201.159 161 191.493 158 184.559 152C177.626 145.867 174.159 135.933 174.159 122.2V77.8H160.559V49.4H174.159V22.2H208.359V49.4H230.759V77.8H208.359V122.6C208.359 125.933 209.159 128.333 210.759 129.8C212.359 131.267 215.026 132 218.759 132H230.959Z" fill="white"/>
<path d="M375.609 161H341.409L284.209 74.4V161H250.009V20.6H284.209L341.409 107.6V20.6H375.609V161ZM505.6 103.4C505.6 106.6 505.4 109.933 505 113.4H427.6C428.133 120.333 430.333 125.667 434.2 129.4C438.2 133 443.067 134.8 448.8 134.8C457.333 134.8 463.267 131.2 466.6 124H503C501.133 131.333 497.733 137.933 492.8 143.8C488 149.667 481.933 154.267 474.6 157.6C467.267 160.933 459.067 162.6 450 162.6C439.067 162.6 429.333 160.267 420.8 155.6C412.267 150.933 405.6 144.267 400.8 135.6C396 126.933 393.6 116.8 393.6 105.2C393.6 93.6 395.933 83.4667 400.6 74.8C405.4 66.1333 412.067 59.4667 420.6 54.8C429.133 50.1333 438.933 47.8 450 47.8C460.8 47.8 470.4 50.0667 478.8 54.6C487.2 59.1333 493.733 65.6 498.4 74C503.2 82.4 505.6 92.2 505.6 103.4ZM470.6 94.4C470.6 88.5333 468.6 83.8667 464.6 80.4C460.6 76.9333 455.6 75.2 449.6 75.2C443.867 75.2 439 76.8667 435 80.2C431.133 83.5333 428.733 88.2667 427.8 94.4H470.6ZM589.642 161L568.242 130L550.242 161H513.242L550.042 104L512.242 49.4H550.642L572.042 80.2L590.042 49.4H627.042L589.642 105.6L628.042 161H589.642Z" fill="#EF5DA8"/>
</svg>
