<svg width="153" height="172" viewBox="0 0 153 172" fill="none" xmlns="http://www.w3.org/2000/svg">
<path d="M152.283 95.0398C152.283 98.2796 150.996 101.387 148.705 103.678C146.414 105.969 143.307 107.256 140.067 107.256C139.422 107.24 138.78 107.179 138.143 107.073H137.532C127.398 105.312 117.978 100.692 110.382 93.757L121.835 69.6916C124.051 73.2226 126.996 76.24 130.472 78.5415C133.948 80.8431 137.875 82.3756 141.991 83.0375C144.872 83.4953 147.493 84.9689 149.382 87.1912C151.243 89.3843 152.27 92.1636 152.283 95.0398Z" fill="white"/>
<path d="M65.5199 125.366C62.2907 127.88 58.7738 130.002 55.0442 131.688C47.0861 135.175 38.4764 136.924 29.7885 136.818C22.5524 136.839 15.3515 135.81 8.41064 133.764C5.35682 132.763 2.82045 130.599 1.3513 127.741C-0.117847 124.882 -0.401633 121.56 0.561712 118.495C1.21169 116.505 2.36185 114.716 3.902 113.299C5.44215 111.882 7.32026 110.884 9.35681 110.401C14.6097 109.149 19.6794 111.837 24.8101 112.417C30.3035 113.027 35.8639 112.507 41.1492 110.89C44.4678 109.918 47.5752 108.333 50.3111 106.217C51.0554 108.639 52.0803 110.966 53.3651 113.15C56.3881 118.13 60.5549 122.318 65.5199 125.366Z" fill="white"/>
<path d="M147.885 167.419C147.885 168.634 147.402 169.799 146.543 170.658C145.684 171.517 144.519 172 143.304 172H45.5767C44.3618 172 43.1962 171.517 42.3371 170.658C41.478 169.799 40.9958 168.634 40.9958 167.419C40.9958 166.204 41.478 165.039 42.3371 164.18C43.1962 163.321 44.3618 162.838 45.5767 162.838H106.656C107.359 162.838 107.603 162.655 107.542 161.861C107.327 157.285 106.838 152.727 106.076 148.21C105.067 142.891 103.123 137.794 100.334 133.153C98.7902 130.648 96.921 128.358 94.7759 126.343C94.0735 125.702 93.31 125.06 92.516 124.419C89.5832 122.126 86.263 120.378 82.7128 119.258C75.1084 116.693 68.2678 114.25 63.9312 107.042C62.3376 104.371 61.3215 101.396 60.948 98.3082C60.5745 95.2206 60.8522 92.0892 61.763 89.1154C62.8013 86.4279 64.3589 83.8012 65.611 81.2053L75.8414 59.5832C76.1162 59.003 77.7351 54.2998 78.407 54.1471C75.9056 54.6293 73.4452 55.3033 71.0472 56.1628C62.6429 59.3232 54.9425 64.107 48.3861 70.2416C47.1951 71.3166 45.8038 72.1465 44.292 72.6838C42.7803 73.2211 41.1777 73.455 39.5754 73.3727C37.9731 73.2905 36.4022 72.8936 34.9534 72.2044C33.5046 71.5152 32.2062 70.5471 31.1315 69.3558C30.0565 68.1648 29.2262 66.7739 28.6889 65.2621C28.1516 63.7503 27.9177 62.1474 27.9999 60.5451C28.0822 58.9428 28.4791 57.3723 29.1683 55.9235C29.8575 54.4746 30.826 53.1759 32.0172 52.1012C40.9326 43.8405 51.3802 37.4075 62.7703 33.1663C70.856 30.2222 79.3912 28.7033 87.9961 28.677C92.3127 28.6692 96.6193 29.0887 100.853 29.9292C101.982 30.0122 103.094 30.2591 104.152 30.6622C105.589 30.8735 106.995 31.2634 108.336 31.8227C112.819 33.698 116.373 37.2772 118.218 41.7731C120.062 46.269 120.045 51.3132 118.17 55.7963L117.254 57.9951L97.6166 99.2544C98.7771 99.8041 99.9679 100.384 101.098 100.995C102.228 101.606 104.152 102.858 105.557 103.866C109.996 107.014 113.965 110.778 117.345 115.044C124.178 124.048 128.679 134.602 130.447 145.766C131.655 151.436 131.924 157.265 131.241 163.021C135.242 163.021 139.242 163.021 143.243 163.021C144.437 163.005 145.591 163.455 146.458 164.276C147.325 165.098 147.837 166.225 147.885 167.419Z" fill="white"/>
<path d="M23.344 162.838H12.3188C11.1039 162.838 9.93902 163.321 9.07992 164.18C8.22082 165.039 7.73784 166.204 7.73784 167.419C7.73784 168.634 8.22082 169.799 9.07992 170.658C9.93902 171.517 11.1039 172 12.3188 172H23.344C24.5589 172 25.7238 171.517 26.5829 170.658C27.442 169.799 27.925 168.634 27.925 167.419C27.925 166.204 27.442 165.039 26.5829 164.18C25.7238 163.321 24.5589 162.838 23.344 162.838Z" fill="white"/>
<path d="M119.453 29.135C127.498 29.135 134.02 22.6129 134.02 14.5675C134.02 6.52208 127.498 0 119.453 0C111.407 0 104.885 6.52208 104.885 14.5675C104.885 22.6129 111.407 29.135 119.453 29.135Z" fill="white"/>
</svg>
